<svg xmlns="http://www.w3.org/2000/svg" viewBox="0 0 24 24" fill="#D2B68A" width="28" height="28">
  <path d="M12 .3a12 12 0 0 0-3.8 23.4c.6.1.8-.3.8-.6v-2.3c-3.3.7-4-1.5-4-1.5-.5-1.2-1.3-1.5-1.3-1.5-1-.7.1-.7.1-.7 1.1.1 1.6 1.2 1.6 1.2 1 .1.8-.7 1.6-1 .1-1.1.7-2 .7-2-2.6-.3-5.3-1.3-5.3-5.9 0-1.3.5-2.4 1.2-3.3-.1-.3-.5-1.5.1-3.2 0 0 1-.3 3.4 1.3a11.8 11.8 0 0 1 6.2 0c2.4-1.6 3.4-1.3 3.4-1.3.6 1.7.2 2.9.1 3.2.8.9 1.2 2 1.2 3.3 0 4.6-2.7 5.6-5.3 5.9.6.5.9 1.4.9 2.7v4c0 .3.2.7.8.6A12 12 0 0 0 12 .3"/>
</svg>
